<svg xmlns="http://www.w3.org/2000/svg" xmlns:xlink="http://www.w3.org/1999/xlink" contentStyleType="text/css" data-diagram-type="CLASS" height="738px" preserveAspectRatio="none" style="width:537px;height:738px;background:#FFFFFF;" version="1.1" viewBox="0 0 537 738" width="537px" zoomAndPan="magnify"><?plantuml 1.2026.5?><defs/><g><!--class Teacher--><g class="entity" data-qualified-name="Teacher" data-source-line="8" id="ent0001"><rect fill="#F4F4F4" height="80.5938" rx="2.5" ry="2.5" style="stroke:#666666;stroke-width:0.5;" width="145.4785" x="263.11" y="7"/><ellipse cx="303.6677" cy="23" fill="#ADD1B2" rx="11" ry="11" style="stroke:#181818;stroke-width:1;"/><path d="M306.6365,28.6406 Q306.0583,28.9375 305.4177,29.0781 Q304.7771,29.2344 304.074,29.2344 Q301.574,29.2344 300.2458,27.5938 Q298.9333,25.9375 298.9333,22.8125 Q298.9333,19.6875 300.2458,18.0313 Q301.574,16.375 304.074,16.375 Q304.7771,16.375 305.4177,16.5313 Q306.074,16.6875 306.6365,16.9844 L306.6365,19.7031 Q306.0115,19.125 305.4177,18.8594 Q304.824,18.5781 304.199,18.5781 Q302.8552,18.5781 302.1677,19.6563 Q301.4802,20.7188 301.4802,22.8125 Q301.4802,24.9063 302.1677,25.9844 Q302.8552,27.0469 304.199,27.0469 Q304.824,27.0469 305.4177,26.7813 Q306.0115,26.5 306.6365,25.9219 L306.6365,28.6406 Z " fill="#000000"/><text fill="#000000" font-family="sans-serif" font-size="14" lengthAdjust="spacing" textLength="56.6836" x="323.3472" y="27.8467">Teacher</text><line style="stroke:#666666;stroke-width:0.5;" x1="264.11" x2="407.5885" y1="39" y2="39"/><g data-visibility-modifier="PRIVATE_FIELD"><rect fill="none" height="6" style="stroke:#C82930;stroke-width:1;" width="6" x="271.11" y="49.6484"/></g><text fill="#000000" font-family="sans-serif" font-size="14" lengthAdjust="spacing" textLength="119.4785" x="283.11" y="55.9951">teacherID: String</text><g data-visibility-modifier="PRIVATE_FIELD"><rect fill="none" height="6" style="stroke:#C82930;stroke-width:1;" width="6" x="271.11" y="65.9453"/></g><text fill="#000000" font-family="sans-serif" font-size="14" lengthAdjust="spacing" textLength="90.6514" x="283.11" y="72.292">name: String</text><line style="stroke:#666666;stroke-width:0.5;" x1="264.11" x2="407.5885" y1="79.5938" y2="79.5938"/></g><!--class ClassSession--><g class="entity" data-qualified-name="ClassSession" data-source-line="13" id="ent0002"><rect fill="#F4F4F4" height="145.7813" rx="2.5" ry="2.5" style="stroke:#666666;stroke-width:0.5;" width="184.1084" x="243.79" y="164.59"/><ellipse cx="286.6272" cy="180.59" fill="#ADD1B2" rx="11" ry="11" style="stroke:#181818;stroke-width:1;"/><path d="M289.5959,186.2306 Q289.0178,186.5275 288.3772,186.6681 Q287.7365,186.8244 287.0334,186.8244 Q284.5334,186.8244 283.2053,185.1838 Q281.8928,183.5275 281.8928,180.4025 Q281.8928,177.2775 283.2053,175.6213 Q284.5334,173.965 287.0334,173.965 Q287.7365,173.965 288.3772,174.1213 Q289.0334,174.2775 289.5959,174.5744 L289.5959,177.2931 Q288.9709,176.715 288.3772,176.4494 Q287.7834,176.1681 287.1584,176.1681 Q285.8147,176.1681 285.1272,177.2463 Q284.4397,178.3088 284.4397,180.4025 Q284.4397,182.4963 285.1272,183.5744 Q285.8147,184.6369 287.1584,184.6369 Q287.7834,184.6369 288.3772,184.3713 Q288.9709,184.09 289.5959,183.5119 L289.5959,186.2306 Z " fill="#000000"/><text fill="#000000" font-family="sans-serif" font-size="14" lengthAdjust="spacing" textLength="90.248" x="306.8132" y="185.4367">ClassSession</text><line style="stroke:#666666;stroke-width:0.5;" x1="244.79" x2="426.8984" y1="196.59" y2="196.59"/><g data-visibility-modifier="PRIVATE_FIELD"><rect fill="none" height="6" style="stroke:#C82930;stroke-width:1;" width="6" x="251.79" y="207.2384"/></g><text fill="#000000" font-family="sans-serif" font-size="14" lengthAdjust="spacing" textLength="122.2266" x="263.79" y="213.5851">classroom: String</text><g data-visibility-modifier="PRIVATE_FIELD"><rect fill="none" height="6" style="stroke:#C82930;stroke-width:1;" width="6" x="251.79" y="223.5353"/></g><text fill="#000000" font-family="sans-serif" font-size="14" lengthAdjust="spacing" textLength="113.6885" x="263.79" y="229.882">schedule: String</text><g data-visibility-modifier="PRIVATE_FIELD"><rect fill="none" height="6" style="stroke:#C82930;stroke-width:1;" width="6" x="251.79" y="239.8322"/></g><text fill="#000000" font-family="sans-serif" font-size="14" lengthAdjust="spacing" textLength="76.6992" x="263.79" y="246.1789">day: String</text><g data-visibility-modifier="PRIVATE_FIELD"><rect fill="none" height="6" style="stroke:#C82930;stroke-width:1;" width="6" x="251.79" y="256.1291"/></g><text fill="#000000" font-family="sans-serif" font-size="14" lengthAdjust="spacing" textLength="91.916" x="263.79" y="262.4757">group: String</text><g data-visibility-modifier="PRIVATE_FIELD"><rect fill="none" height="6" style="stroke:#C82930;stroke-width:1;" width="6" x="251.79" y="272.4259"/></g><text fill="#000000" font-family="sans-serif" font-size="14" lengthAdjust="spacing" textLength="101.6914" x="263.79" y="278.7726">subject: String</text><g data-visibility-modifier="PRIVATE_FIELD"><rect fill="none" height="6" style="stroke:#C82930;stroke-width:1;" width="6" x="251.79" y="288.7228"/></g><text fill="#000000" font-family="sans-serif" font-size="14" lengthAdjust="spacing" textLength="158.1084" x="263.79" y="295.0695">registrationKey: String</text><line style="stroke:#666666;stroke-width:0.5;" x1="244.79" x2="426.8984" y1="302.3713" y2="302.3713"/></g><!--class Attendance--><g class="entity" data-qualified-name="Attendance" data-source-line="22" id="ent0003"><rect fill="#F4F4F4" height="113.1875" rx="2.5" ry="2.5" style="stroke:#666666;stroke-width:0.5;" width="324.1768" x="46.76" y="387.37"/><ellipse cx="164.2527" cy="403.37" fill="#ADD1B2" rx="11" ry="11" style="stroke:#181818;stroke-width:1;"/><path d="M167.2214,409.0106 Q166.6433,409.3075 166.0027,409.4481 Q165.3621,409.6044 164.6589,409.6044 Q162.1589,409.6044 160.8308,407.9638 Q159.5183,406.3075 159.5183,403.1825 Q159.5183,400.0575 160.8308,398.4013 Q162.1589,396.745 164.6589,396.745 Q165.3621,396.745 166.0027,396.9013 Q166.6589,397.0575 167.2214,397.3544 L167.2214,400.0731 Q166.5964,399.495 166.0027,399.2294 Q165.4089,398.9481 164.7839,398.9481 Q163.4402,398.9481 162.7527,400.0263 Q162.0652,401.0888 162.0652,403.1825 Q162.0652,405.2763 162.7527,406.3544 Q163.4402,407.4169 164.7839,407.4169 Q165.4089,407.4169 166.0027,407.1513 Q166.5964,406.87 167.2214,406.2919 L167.2214,409.0106 Z " fill="#000000"/><text fill="#000000" font-family="sans-serif" font-size="14" lengthAdjust="spacing" textLength="80.6914" x="184.7527" y="408.2167">Attendance</text><line style="stroke:#666666;stroke-width:0.5;" x1="47.76" x2="369.9368" y1="419.37" y2="419.37"/><g data-visibility-modifier="PRIVATE_FIELD"><rect fill="none" height="6" style="stroke:#C82930;stroke-width:1;" width="6" x="54.76" y="430.0184"/></g><text fill="#000000" font-family="sans-serif" font-size="14" lengthAdjust="spacing" textLength="298.1768" x="66.76" y="436.3651">status: String // attended, absent, pending</text><g data-visibility-modifier="PRIVATE_FIELD"><rect fill="none" height="6" style="stroke:#C82930;stroke-width:1;" width="6" x="54.76" y="446.3153"/></g><text fill="#000000" font-family="sans-serif" font-size="14" lengthAdjust="spacing" textLength="152.8379" x="66.76" y="452.662">timestamp: DateTime</text><g data-visibility-modifier="PRIVATE_FIELD"><rect fill="none" height="6" style="stroke:#C82930;stroke-width:1;" width="6" x="54.76" y="462.6122"/></g><text fill="#000000" font-family="sans-serif" font-size="14" lengthAdjust="spacing" textLength="124.1748" x="66.76" y="468.9589">location: Location</text><g data-visibility-modifier="PRIVATE_FIELD"><rect fill="none" height="6" style="stroke:#C82930;stroke-width:1;" width="6" x="54.76" y="478.9091"/></g><text fill="#000000" font-family="sans-serif" font-size="14" lengthAdjust="spacing" textLength="157.1855" x="66.76" y="485.2557">supervisor: Supervisor</text><line style="stroke:#666666;stroke-width:0.5;" x1="47.76" x2="369.9368" y1="492.5575" y2="492.5575"/></g><!--class Building--><g class="entity" data-qualified-name="Building" data-source-line="29" id="ent0004"><rect fill="#F4F4F4" height="64.2969" rx="2.5" ry="2.5" style="stroke:#666666;stroke-width:0.5;" width="116.6514" x="405.52" y="411.82"/><ellipse cx="433.0563" cy="427.82" fill="#ADD1B2" rx="11" ry="11" style="stroke:#181818;stroke-width:1;"/><path d="M436.025,433.4606 Q435.4469,433.7575 434.8063,433.8981 Q434.1657,434.0544 433.4625,434.0544 Q430.9625,434.0544 429.6344,432.4138 Q428.3219,430.7575 428.3219,427.6325 Q428.3219,424.5075 429.6344,422.8513 Q430.9625,421.195 433.4625,421.195 Q434.1657,421.195 434.8063,421.3513 Q435.4625,421.5075 436.025,421.8044 L436.025,424.5231 Q435.4,423.945 434.8063,423.6794 Q434.2125,423.3981 433.5875,423.3981 Q432.2438,423.3981 431.5563,424.4763 Q430.8688,425.5388 430.8688,427.6325 Q430.8688,429.7263 431.5563,430.8044 Q432.2438,431.8669 433.5875,431.8669 Q434.2125,431.8669 434.8063,431.6013 Q435.4,431.32 436.025,430.7419 L436.025,433.4606 Z " fill="#000000"/><text fill="#000000" font-family="sans-serif" font-size="14" lengthAdjust="spacing" textLength="56.793" x="449.8421" y="432.6667">Building</text><line style="stroke:#666666;stroke-width:0.5;" x1="406.52" x2="521.1714" y1="443.82" y2="443.82"/><g data-visibility-modifier="PRIVATE_FIELD"><rect fill="none" height="6" style="stroke:#C82930;stroke-width:1;" width="6" x="413.52" y="454.4684"/></g><text fill="#000000" font-family="sans-serif" font-size="14" lengthAdjust="spacing" textLength="90.6514" x="425.52" y="460.8151">name: String</text><line style="stroke:#666666;stroke-width:0.5;" x1="406.52" x2="521.1714" y1="468.1169" y2="468.1169"/></g><!--class Location--><g class="entity" data-qualified-name="Location" data-source-line="33" id="ent0005"><rect fill="#F4F4F4" height="145.7813" rx="2.5" ry="2.5" style="stroke:#666666;stroke-width:0.5;" width="207.6924" x="7" y="577.56"/><ellipse cx="76.8667" cy="593.56" fill="#ADD1B2" rx="11" ry="11" style="stroke:#181818;stroke-width:1;"/><path d="M79.8354,599.2006 Q79.2573,599.4975 78.6167,599.6381 Q77.9761,599.7944 77.2729,599.7944 Q74.7729,599.7944 73.4448,598.1538 Q72.1323,596.4975 72.1323,593.3725 Q72.1323,590.2475 73.4448,588.5913 Q74.7729,586.935 77.2729,586.935 Q77.9761,586.935 78.6167,587.0913 Q79.2729,587.2475 79.8354,587.5444 L79.8354,590.2631 Q79.2104,589.685 78.6167,589.4194 Q78.0229,589.1381 77.3979,589.1381 Q76.0542,589.1381 75.3667,590.2163 Q74.6792,591.2788 74.6792,593.3725 Q74.6792,595.4663 75.3667,596.5444 Q76.0542,597.6069 77.3979,597.6069 Q78.0229,597.6069 78.6167,597.3413 Q79.2104,597.06 79.8354,596.4819 L79.8354,599.2006 Z " fill="#000000"/><text fill="#000000" font-family="sans-serif" font-size="14" lengthAdjust="spacing" textLength="59.459" x="97.3667" y="598.4067">Location</text><line style="stroke:#666666;stroke-width:0.5;" x1="8" x2="213.6924" y1="609.56" y2="609.56"/><g data-visibility-modifier="PRIVATE_FIELD"><rect fill="none" height="6" style="stroke:#C82930;stroke-width:1;" width="6" x="15" y="620.2084"/></g><text fill="#000000" font-family="sans-serif" font-size="14" lengthAdjust="spacing" textLength="112.4854" x="27" y="626.5551">latitude: Double</text><g data-visibility-modifier="PRIVATE_FIELD"><rect fill="none" height="6" style="stroke:#C82930;stroke-width:1;" width="6" x="15" y="636.5053"/></g><text fill="#000000" font-family="sans-serif" font-size="14" lengthAdjust="spacing" textLength="124.7422" x="27" y="642.852">longitude: Double</text><g data-visibility-modifier="PRIVATE_FIELD"><rect fill="none" height="6" style="stroke:#C82930;stroke-width:1;" width="6" x="15" y="652.8022"/></g><text fill="#000000" font-family="sans-serif" font-size="14" lengthAdjust="spacing" textLength="106.2578" x="27" y="659.1489">address: String</text><g data-visibility-modifier="PRIVATE_FIELD"><rect fill="none" height="6" style="stroke:#C82930;stroke-width:1;" width="6" x="15" y="669.0991"/></g><text fill="#000000" font-family="sans-serif" font-size="14" lengthAdjust="spacing" textLength="121.9395" x="27" y="675.4457">accuracy: Double</text><g data-visibility-modifier="PRIVATE_FIELD"><rect fill="none" height="6" style="stroke:#C82930;stroke-width:1;" width="6" x="15" y="685.3959"/></g><text fill="#000000" font-family="sans-serif" font-size="14" lengthAdjust="spacing" textLength="181.6924" x="27" y="691.7426">distanceToSchool: Double</text><g data-visibility-modifier="PRIVATE_FIELD"><rect fill="none" height="6" style="stroke:#C82930;stroke-width:1;" width="6" x="15" y="701.6928"/></g><text fill="#000000" font-family="sans-serif" font-size="14" lengthAdjust="spacing" textLength="169.1484" x="27" y="708.0395">isWithinRadius: Boolean</text><line style="stroke:#666666;stroke-width:0.5;" x1="8" x2="213.6924" y1="715.3413" y2="715.3413"/></g><!--class Supervisor--><g class="entity" data-qualified-name="Supervisor" data-source-line="42" id="ent0006"><rect fill="#F4F4F4" height="80.5938" rx="2.5" ry="2.5" style="stroke:#666666;stroke-width:0.5;" width="115.5576" x="250.07" y="610.15"/><ellipse cx="269.0084" cy="626.15" fill="#ADD1B2" rx="11" ry="11" style="stroke:#181818;stroke-width:1;"/><path d="M271.9771,631.7906 Q271.399,632.0875 270.7584,632.2281 Q270.1178,632.3844 269.4146,632.3844 Q266.9146,632.3844 265.5865,630.7438 Q264.274,629.0875 264.274,625.9625 Q264.274,622.8375 265.5865,621.1813 Q266.9146,619.525 269.4146,619.525 Q270.1178,619.525 270.7584,619.6813 Q271.4146,619.8375 271.9771,620.1344 L271.9771,622.8531 Q271.3521,622.275 270.7584,622.0094 Q270.1646,621.7281 269.5396,621.7281 Q268.1959,621.7281 267.5084,622.8063 Q266.8209,623.8688 266.8209,625.9625 Q266.8209,628.0563 267.5084,629.1344 Q268.1959,630.1969 269.5396,630.1969 Q270.1646,630.1969 270.7584,629.9313 Q271.3521,629.65 271.9771,629.0719 L271.9771,631.7906 Z " fill="#000000"/><text fill="#000000" font-family="sans-serif" font-size="14" lengthAdjust="spacing" textLength="74.8057" x="283.8836" y="630.9967">Supervisor</text><line style="stroke:#666666;stroke-width:0.5;" x1="251.07" x2="364.6276" y1="642.15" y2="642.15"/><g data-visibility-modifier="PRIVATE_FIELD"><rect fill="none" height="6" style="stroke:#C82930;stroke-width:1;" width="6" x="258.07" y="652.7984"/></g><text fill="#000000" font-family="sans-serif" font-size="14" lengthAdjust="spacing" textLength="72.5977" x="270.07" y="659.1451">uid: String</text><g data-visibility-modifier="PRIVATE_FIELD"><rect fill="none" height="6" style="stroke:#C82930;stroke-width:1;" width="6" x="258.07" y="669.0953"/></g><text fill="#000000" font-family="sans-serif" font-size="14" lengthAdjust="spacing" textLength="89.5576" x="270.07" y="675.442">email: String</text><line style="stroke:#666666;stroke-width:0.5;" x1="251.07" x2="364.6276" y1="682.7438" y2="682.7438"/></g><!--link Teacher to ClassSession--><g class="link" data-entity-1="ent0001" data-entity-2="ent0002" data-link-type="association" data-source-line="48" id="lnk7"><path codeLine="48" d="M335.85,87.74 C335.85,109.95 335.85,138.36 335.85,164.39" fill="none" id="Teacher-ClassSession" style="stroke:#333333;stroke-width:1;"/><polygon fill="#000000" points="340.85,131.1564,343.7889,122.1113,337.9111,122.1113,340.85,131.1564" style="stroke:#000000;stroke-width:1;stroke-linejoin:miter;stroke-miterlimit:10;"/><text fill="#000000" font-family="sans-serif" font-size="13" lengthAdjust="spacing" textLength="51.2192" x="349.85" y="130.6569">teaches</text><text fill="#000000" font-family="sans-serif" font-size="13" lengthAdjust="spacing" textLength="8.271" x="327.2101" y="107.7585">1</text><text fill="#000000" font-family="sans-serif" font-size="13" lengthAdjust="spacing" textLength="23.0356" x="311.7203" y="153.5303">0..*</text></g><!--link ClassSession to Attendance--><g class="link" data-entity-1="ent0002" data-entity-2="ent0003" data-link-type="association" data-source-line="49" id="lnk8"><path codeLine="49" d="M290.89,310.86 C275.34,335.91 258.15,363.57 243.55,387.09" fill="none" id="ClassSession-Attendance" style="stroke:#333333;stroke-width:1;"/><polygon fill="#000000" points="275.2122,353.184,282.4807,347.0505,277.4874,343.9496,275.2122,353.184" style="stroke:#000000;stroke-width:1;stroke-linejoin:miter;stroke-miterlimit:10;"/><text fill="#000000" font-family="sans-serif" font-size="13" lengthAdjust="spacing" textLength="22.9785" x="286.85" y="353.4369">has</text><text fill="#000000" font-family="sans-serif" font-size="13" lengthAdjust="spacing" textLength="8.271" x="278.3895" y="330.3891">1</text><text fill="#000000" font-family="sans-serif" font-size="13" lengthAdjust="spacing" textLength="8.271" x="239.3083" y="376.3194">1</text></g><!--link ClassSession to Building--><g class="link" data-entity-1="ent0002" data-entity-2="ent0004" data-link-type="association" data-source-line="50" id="lnk9"><path codeLine="50" d="M381.15,310.86 C402.73,345.33 427.41,384.76 444.15,411.5" fill="none" id="ClassSession-Building" style="stroke:#333333;stroke-width:1;"/><polygon fill="#000000" points="415.503,353.1745,413.1948,343.9483,408.2126,347.0671,415.503,353.1745" style="stroke:#000000;stroke-width:1;stroke-linejoin:miter;stroke-miterlimit:10;"/><text fill="#000000" font-family="sans-serif" font-size="13" lengthAdjust="spacing" textLength="68.2627" x="421.85" y="353.4369">belongs to</text><text fill="#000000" font-family="sans-serif" font-size="13" lengthAdjust="spacing" textLength="8.271" x="376.9704" y="330.3891">1</text><text fill="#000000" font-family="sans-serif" font-size="13" lengthAdjust="spacing" textLength="8.271" x="431.5116" y="400.7112">1</text></g><!--link Attendance to Location--><g class="link" data-entity-1="ent0003" data-entity-2="ent0005" data-link-type="association" data-source-line="51" id="lnk10"><path codeLine="51" d="M182.07,500.84 C170.79,524.37 157.52,552.06 145.51,577.12" fill="none" id="Attendance-Location" style="stroke:#333333;stroke-width:1;"/><polygon fill="#000000" points="168.689,543.6353,175.2486,536.7489,169.9481,534.2084,168.689,543.6353" style="stroke:#000000;stroke-width:1;stroke-linejoin:miter;stroke-miterlimit:10;"/><text fill="#000000" font-family="sans-serif" font-size="13" lengthAdjust="spacing" textLength="48.8135" x="179.85" y="543.6269">records</text><text fill="#000000" font-family="sans-serif" font-size="13" lengthAdjust="spacing" textLength="8.271" x="170.3354" y="520.7608">1</text><text fill="#000000" font-family="sans-serif" font-size="13" lengthAdjust="spacing" textLength="8.271" x="140.4456" y="566.4891">1</text></g><!--link Attendance to Supervisor--><g class="link" data-entity-1="ent0003" data-entity-2="ent0006" data-link-type="association" data-source-line="52" id="lnk11"><path codeLine="52" d="M235.9,500.84 C252.62,535.37 273.67,578.85 288.67,609.84" fill="none" id="Attendance-Supervisor" style="stroke:#333333;stroke-width:1;"/><polygon fill="#000000" points="266.0287,543.6267,264.7326,534.2049,259.4421,536.7662,266.0287,543.6267" style="stroke:#000000;stroke-width:1;stroke-linejoin:miter;stroke-miterlimit:10;"/><text fill="#000000" font-family="sans-serif" font-size="13" lengthAdjust="spacing" textLength="69.4561" x="272.85" y="543.6269">supervises</text><text fill="#000000" font-family="sans-serif" font-size="13" lengthAdjust="spacing" textLength="8.271" x="230.7259" y="520.7608">1</text><text fill="#000000" font-family="sans-serif" font-size="13" lengthAdjust="spacing" textLength="8.271" x="276.8535" y="598.9502">1</text></g><?plantuml-src VLFDQjn03BxxASJs42ZPfAMb1nyAsIo5qfwo2prhPyHQpNZ6p4-A2NcgFa9VhBBNEtOcQSTWZwHFqgSVXtks7NfimR2b47j3u7niN1MoHHaC0HuhaBD1TN_qBbbzwuppyERBn-4PRJVUkr-J-iDuJYxEQ_AJ_jDuggUgEaNT4wg6_1Hz3V4aVztMi8kUxN7IMsmfgxBtxV3UKGZiR0unchnpRH4YI62T31LgZNsX6UhhIkTq-4ag5bfFHmxHOvJytwX_IV0cHh8QhQ9CBqICAPoXS7qDE898Nm8U0jbu2Pt8SvR8hKm6M-6qnKXx4IUBSMhCNSFtwPRfTkGVE3WlYV9zvhL9R8OCcTNh_Jr7pJ0ZOanQe5kN3cRcOO-lwL5hBzCfkePA9O-gBy1QMZbqQkzsgd7E56OEFpWsREzGyz2_ZK08xKnshZFJJQoBtDGYcsMX5t171fKKIG6KbDec4xaph5YZXbveULAA__osrNbPL-zNi5x3wjtLrTlLyoMifmqEyBbwPZZxo6Un53Kq-3zedbCD1ngw720wmIz2BD1vNBLiffBVBlmJkcXMdRTbOFqN?></g></svg>